<svg width="28" height="33" viewBox="0 0 28 33" fill="none" xmlns="http://www.w3.org/2000/svg">
<path d="M23.8 4.06937H21V2.51125C21 2.09801 20.8525 1.70169 20.59 1.40949C20.3274 1.11728 19.9713 0.953125 19.6 0.953125C19.2287 0.953125 18.8726 1.11728 18.6101 1.40949C18.3475 1.70169 18.2 2.09801 18.2 2.51125V4.06937H9.8V2.51125C9.8 2.09801 9.6525 1.70169 9.38995 1.40949C9.1274 1.11728 8.7713 0.953125 8.4 0.953125C8.0287 0.953125 7.6726 1.11728 7.41005 1.40949C7.1475 1.70169 7 2.09801 7 2.51125V4.06937H4.2C3.08609 4.06937 2.0178 4.56185 1.23015 5.43846C0.442499 6.31508 0 7.50402 0 8.74374V27.4412C0 28.681 0.442499 29.8699 1.23015 30.7465C2.0178 31.6231 3.08609 32.1156 4.2 32.1156H23.8C24.9139 32.1156 25.9822 31.6231 26.7698 30.7465C27.5575 29.8699 28 28.681 28 27.4412V8.74374C28 7.50402 27.5575 6.31508 26.7698 5.43846C25.9822 4.56185 24.9139 4.06937 23.8 4.06937ZM25.2 27.4412C25.2 27.8545 25.0525 28.2508 24.7899 28.543C24.5274 28.8352 24.1713 28.9994 23.8 28.9994H4.2C3.8287 28.9994 3.4726 28.8352 3.21005 28.543C2.9475 28.2508 2.8 27.8545 2.8 27.4412V16.5344H25.2V27.4412ZM25.2 13.4181H2.8V8.74374C2.8 8.3305 2.9475 7.93419 3.21005 7.64198C3.4726 7.34978 3.8287 7.18562 4.2 7.18562H7V8.74374C7 9.15698 7.1475 9.5533 7.41005 9.8455C7.6726 10.1377 8.0287 10.3019 8.4 10.3019C8.7713 10.3019 9.1274 10.1377 9.38995 9.8455C9.6525 9.5533 9.8 9.15698 9.8 8.74374V7.18562H18.2V8.74374C18.2 9.15698 18.3475 9.5533 18.6101 9.8455C18.8726 10.1377 19.2287 10.3019 19.6 10.3019C19.9713 10.3019 20.3274 10.1377 20.59 9.8455C20.8525 9.5533 21 9.15698 21 8.74374V7.18562H23.8C24.1713 7.18562 24.5274 7.34978 24.7899 7.64198C25.0525 7.93419 25.2 8.3305 25.2 8.74374V13.4181Z" fill="black"/>
</svg>
